<?xml version="1.0" encoding="utf-8"?>
<svg width="240" height="48" viewBox="0 0 240 48" fill="none" xmlns="http://www.w3.org/2000/svg">
  <g>
    <rect width="16" height="16" fill="none" fill-rule="evenodd" />
    <rect width="16" height="16" fill="var(--svg-n-fill, #1780E3)" fill-rule="evenodd" transform="translate(16 0)" />
    <rect width="16" height="16" fill="none" fill-rule="evenodd" transform="translate(32 0)" />
    <rect width="16" height="16" fill="var(--svg-n-fill, #1780E3)" fill-rule="evenodd" transform="translate(48 0)" />
    <rect width="16" height="16" fill="none" fill-rule="evenodd" transform="translate(64 0)" />
    <rect width="16" height="16" fill="var(--svg-n-fill, #1780E3)" fill-rule="evenodd" transform="translate(80 0)" />
    <rect width="16" height="16" fill="none" fill-rule="evenodd" transform="translate(96 0)" />
    <rect width="16" height="16" fill="var(--svg-n-fill, #1780E3)" fill-rule="evenodd" transform="translate(112 0)" />
    <rect width="16" height="16" fill="none" fill-rule="evenodd" transform="translate(128 0)" />
    <rect width="16" height="16" fill="var(--svg-n-fill, #1780E3)" fill-rule="evenodd" transform="translate(144 0)" />
    <rect width="16" height="16" fill="none" fill-rule="evenodd" transform="translate(160 0)" />
    <rect width="16" height="16" fill="var(--svg-n-fill, #1780E3)" fill-rule="evenodd" transform="translate(176 0)" />
    <rect width="16" height="16" fill="none" fill-rule="evenodd" transform="translate(192 0)" />
    <rect width="16" height="16" fill="var(--svg-n-fill, #1780E3)" fill-rule="evenodd" transform="translate(208 0)" />
    <rect width="16" height="16" fill="none" fill-rule="evenodd" transform="translate(224 0)" />
    <rect width="16" height="16" fill="var(--svg-n-fill, #1780E3)" fill-rule="evenodd" transform="translate(0 16)" />
    <rect width="16" height="16" fill="none" fill-rule="evenodd" transform="translate(16 16)" />
    <rect width="16" height="16" fill="var(--svg-n-fill, #1780E3)" fill-rule="evenodd" transform="translate(32 16)" />
    <rect width="16" height="16" fill="none" fill-rule="evenodd" transform="translate(48 16)" />
    <rect width="16" height="16" fill="var(--svg-n-fill, #1780E3)" fill-rule="evenodd" transform="translate(64 16)" />
    <rect width="16" height="16" fill="none" fill-rule="evenodd" transform="translate(80 16)" />
    <rect width="16" height="16" fill="var(--svg-n-fill, #1780E3)" fill-rule="evenodd" transform="translate(96 16)" />
    <rect width="16" height="16" fill="none" fill-rule="evenodd" transform="translate(112 16)" />
    <rect width="16" height="16" fill="var(--svg-n-fill, #1780E3)" fill-rule="evenodd" transform="translate(128 16)" />
    <rect width="16" height="16" fill="none" fill-rule="evenodd" transform="translate(144 16)" />
    <rect width="16" height="16" fill="var(--svg-n-fill, #1780E3)" fill-rule="evenodd" transform="translate(160 16)" />
    <rect width="16" height="16" fill="none" fill-rule="evenodd" transform="translate(176 16)" />
    <rect width="16" height="16" fill="var(--svg-n-fill, #1780E3)" fill-rule="evenodd" transform="translate(192 16)" />
    <rect width="16" height="16" fill="none" fill-rule="evenodd" transform="translate(208 16)" />
    <rect width="16" height="16" fill="var(--svg-n-fill, #1780E3)" fill-rule="evenodd" transform="translate(224 16)" />
    <rect width="16" height="16" fill="none" fill-rule="evenodd" transform="translate(0 32)" />
    <rect width="16" height="16" fill="var(--svg-n-fill, #1780E3)" fill-rule="evenodd" transform="translate(16 32)" />
    <rect width="16" height="16" fill="none" fill-rule="evenodd" transform="translate(32 32)" />
    <rect width="16" height="16" fill="var(--svg-n-fill, #1780E3)" fill-rule="evenodd" transform="translate(48 32)" />
    <rect width="16" height="16" fill="none" fill-rule="evenodd" transform="translate(64 32)" />
    <rect width="16" height="16" fill="var(--svg-n-fill, #1780E3)" fill-rule="evenodd" transform="translate(80 32)" />
    <rect width="16" height="16" fill="none" fill-rule="evenodd" transform="translate(96 32)" />
    <rect width="16" height="16" fill="var(--svg-n-fill, #1780E3)" fill-rule="evenodd" transform="translate(112 32)" />
    <rect width="16" height="16" fill="none" fill-rule="evenodd" transform="translate(128 32)" />
    <rect width="16" height="16" fill="var(--svg-n-fill, #1780E3)" fill-rule="evenodd" transform="translate(144 32)" />
    <rect width="16" height="16" fill="none" fill-rule="evenodd" transform="translate(160 32)" />
    <rect width="16" height="16" fill="var(--svg-n-fill, #1780E3)" fill-rule="evenodd" transform="translate(176 32)" />
    <rect width="16" height="16" fill="none" fill-rule="evenodd" transform="translate(192 32)" />
    <rect width="16" height="16" fill="var(--svg-n-fill, #1780E3)" fill-rule="evenodd" transform="translate(208 32)" />
    <rect width="16" height="16" fill="none" fill-rule="evenodd" transform="translate(224 32)" />
  </g>
</svg>
