<?xml version="1.0" encoding="utf-8"?>
<svg width="50" height="35.644" viewBox="0 0 50 35.644" fill="none" xmlns="http://www.w3.org/2000/svg">
  <g>
    <g>
      <g>
        <path d="M47.9811 0L47.9811 4.49595L23.7731 9.96149L0 9.96149L0 5.27295L23.3049 0L47.9811 0L47.9811 0Z" fill="#260C1A" fill-rule="evenodd" transform="translate(1.019 16.916)" />
        <path d="M47.9811 0L47.9811 2.99841L23.7731 6.64099L0 6.64099L0 3.51474L23.3049 0L47.9811 0L47.9811 0Z" fill="#260C1A" fill-rule="evenodd" transform="matrix(1 0 0 1 1.046 27.874)" />
        <path d="M0.0365257 4.53081L0 4.2851L3.70899 3.71563L3.70899 0L3.95803 0L3.95803 3.9298L0.0365257 4.53081L0.0365257 4.53081Z" fill="#260C1A" fill-rule="evenodd" transform="translate(46.042 27.969)" />
        <path d="M4.28178 3.78537L0 3.78537L0.00166025 0L0.250697 0L0.249037 3.53633L4.28178 3.53633L4.28178 3.78537L4.28178 3.78537Z" fill="#260C1A" fill-rule="evenodd" transform="translate(0 31.858)" />
        <path d="M47.9811 0L47.9811 6.74392L23.7731 14.9422L0 14.9422L0 7.90776L23.3049 0L47.9811 0L47.9811 0Z" fill="#260C1A" fill-rule="evenodd" transform="translate(1.046 0.978)" />
        <path d="M0.249037 7.95092L0 7.95092L0 1.94249L5.72121 0L5.8009 0.235755L0.249037 2.1218L0.249037 7.95092L0.249037 7.95092Z" fill="#260C1A" fill-rule="evenodd" transform="translate(0.002 6.267)" />
        <path d="M6.5447 6.62605L6.29566 6.62605L6.29566 0.249037L0 0.249037L0 0L6.5447 0L6.5447 6.62605L6.5447 6.62605Z" fill="#260C1A" fill-rule="evenodd" transform="translate(43.455 0)" />
      </g>
    </g>
  </g>
</svg>