<?xml version="1.0" encoding="utf-8"?>
<svg width="253.86" height="127.065" viewBox="0 0 253.86 127.065" fill="none" xmlns="http://www.w3.org/2000/svg">
  <g transform="translate(0 0)">
    <g>
      <path d="M243.61 0L243.61 15.0948L120.701 33.4326L0 33.4326L0 17.6942L118.323 0L243.61 0L243.61 0Z" fill="#260C1A" fill-rule="evenodd" transform="translate(5.31 88.786)" />
      <path d="M0.185455 22.8093L0 21.5723L18.8313 18.7055L18.8313 0L20.0957 0L20.0957 19.7837L0.185455 22.8093L0.185455 22.8093Z" fill="#8A7881" fill-rule="evenodd" transform="translate(233.552 88.786)" />
      <path d="M21.7394 19.0566L0 19.0566L0.0084294 0L1.27284 0L1.26441 17.8028L21.7394 17.8028L21.7394 19.0566L21.7394 19.0566Z" fill="#8A7881" fill-rule="evenodd" transform="translate(0 108.008)" />
      <path d="M243.61 0L243.61 33.9508L120.701 75.2232L0 75.2232L0 39.8098L118.323 0L243.61 0L243.61 0Z" fill="#8A7881" fill-rule="evenodd" transform="translate(5.31 4.923)" />
      <path d="M1.26441 40.0271L0 40.0271L0 9.77902L29.0477 0L29.4523 1.18685L1.26441 10.6817L1.26441 40.0271L1.26441 40.0271Z" fill="#8A7881" fill-rule="evenodd" transform="translate(0.009 31.552)" />
      <path d="M33.2287 33.3573L31.9643 33.3573L31.9643 1.25372L0 1.25372L0 0L33.2287 0L33.2287 33.3573L33.2287 33.3573Z" fill="#8A7881" fill-rule="evenodd" transform="translate(220.63 0)" />
    </g>
  </g>
</svg>