<?xml version="1.0" encoding="utf-8"?>
<svg width="725" height="128" viewBox="0 0 725 128" fill="none" xmlns="http://www.w3.org/2000/svg">
  <g>
    <g transform="translate(0 0.935)">
      <g>
        <path d="M243.61 0L243.61 15.0948L120.701 33.4326L0 33.4326L0 17.6942L118.323 0L243.61 0L243.61 0Z" fill="#260C1A" fill-rule="evenodd" transform="translate(5.31 88.786)" />
        <path d="M0.185455 22.8093L0 21.5723L18.8313 18.7055L18.8313 0L20.0957 0L20.0957 19.7837L0.185455 22.8093L0.185455 22.8093Z" fill="#8A7881" fill-rule="evenodd" transform="translate(233.552 88.786)" />
        <path d="M21.7394 19.0566L0 19.0566L0.0084294 0L1.27284 0L1.26441 17.8028L21.7394 17.8028L21.7394 19.0566L21.7394 19.0566Z" fill="#8A7881" fill-rule="evenodd" transform="translate(0 108.008)" />
        <path d="M243.61 0L243.61 33.9508L120.701 75.2232L0 75.2232L0 39.8098L118.323 0L243.61 0L243.61 0Z" fill="#8A7881" fill-rule="evenodd" transform="translate(5.31 4.923)" />
        <path d="M1.26441 40.0271L0 40.0271L0 9.77902L29.0477 0L29.4523 1.18685L1.26441 10.6817L1.26441 40.0271L1.26441 40.0271Z" fill="#8A7881" fill-rule="evenodd" transform="translate(0.009 31.552)" />
        <path d="M33.2287 33.3573L31.9643 33.3573L31.9643 1.25372L0 1.25372L0 0L33.2287 0L33.2287 33.3573L33.2287 33.3573Z" fill="#8A7881" fill-rule="evenodd" transform="translate(220.63 0)" />
      </g>
    </g>
    <path d="M9.88416 65.9214L0 65.9214L0 3.42321L9.88416 3.42321L9.88416 65.9214ZM48.1557 65.9214L48.1557 36.384C48.1556 34.0692 47.8355 32.0642 47.1964 30.3689C46.5572 28.6736 45.5081 27.3532 44.0493 26.4077C42.5905 25.4623 40.5989 24.9895 38.0744 24.9895C35.7469 24.9895 33.7308 25.4133 32.026 26.261C30.3214 27.1086 28.936 28.2497 27.8707 29.6842C26.8051 31.1187 26.0432 32.7488 25.584 34.5746L24.0104 27.9237L26.076 27.9237C26.633 25.9024 27.5511 24.0685 28.8297 22.4221C30.1082 20.7757 31.8126 19.4635 33.9437 18.4854C36.0749 17.5074 38.7137 17.0183 41.8611 17.0183C45.6311 17.0183 48.6801 17.7274 51.0077 19.1456C53.3351 20.5638 55.0479 22.6259 56.1465 25.3319C57.2449 28.0378 57.7935 31.3632 57.7935 35.3081L57.7935 65.9214L48.1557 65.9214ZM16.2892 65.9215L16.2892 18.0942L25.9274 18.0942L25.534 29.293L25.9274 29.8799L25.9274 65.9215L16.2892 65.9215ZM80.4746 59.4664L92.7196 18.0942L102.702 18.0942L87.7529 65.9215L72.0662 65.9215L57.1166 18.0942L67.0992 18.0942L79.3441 59.4664L80.4746 59.4664ZM122.088 67.144C115.007 67.144 109.63 65.2695 105.959 61.5203C102.286 57.771 100.451 52.3756 100.451 45.3335L100.451 38.5357C100.451 31.5262 102.286 26.155 105.959 22.4221C109.63 18.6891 115.007 16.8227 122.088 16.8227C129.169 16.8227 134.537 18.6891 138.193 22.4221C141.848 26.155 143.676 31.5262 143.676 38.5357L143.676 45.3335C143.676 52.3756 141.848 57.771 138.193 61.5203C134.537 65.2695 129.169 67.144 122.088 67.144L122.088 67.144ZM122.089 59.3684C125.991 59.3684 128.957 58.2112 130.99 55.8964C133.022 53.5817 134.039 50.2562 134.039 45.9201L134.039 37.9489C134.039 33.6454 133.022 30.3444 130.99 28.046C128.957 25.7475 125.991 24.5983 122.089 24.5983C118.188 24.5983 115.222 25.7475 113.189 28.046C111.156 30.3444 110.14 33.6454 110.14 37.9489L110.14 45.9201C110.14 50.2562 111.156 53.5817 113.189 55.8964C115.222 58.2112 118.188 59.3684 122.089 59.3684L122.089 59.3684ZM147.427 65.9215L147.427 18.0942L157.065 18.0942L157.065 65.9215L147.427 65.9215ZM152.245 11.0521C150.343 11.0521 148.926 10.5712 147.991 9.60948C147.058 8.64772 146.59 7.31918 146.59 5.62387L146.59 5.42825C146.59 3.73295 147.058 2.40441 147.991 1.44264C148.926 0.480881 150.343 0 152.245 0C154.146 0 155.564 0.480881 156.498 1.44264C157.432 2.40441 157.901 3.73294 157.901 5.42825L157.901 5.62387C157.901 7.35179 157.432 8.68847 156.498 9.63395C155.564 10.5794 154.146 11.0521 152.245 11.0521L152.245 11.0521ZM181.911 67.0462C174.764 67.0462 169.461 65.1636 166.003 61.398C162.543 57.6324 160.814 52.3101 160.814 45.431L160.814 38.5357C160.814 31.6241 162.551 26.2936 166.027 22.5444C169.502 18.7951 174.796 16.9205 181.911 16.9205C183.878 16.9205 185.689 17.0998 187.345 17.4584C189 17.817 190.5 18.2816 191.845 18.8522C193.188 19.4227 194.336 20.0177 195.287 20.6371L196.122 28.8528C194.548 27.7444 192.73 26.8071 190.665 26.0409C188.598 25.2748 186.189 24.8917 183.435 24.8917C179.042 24.8917 175.788 26.0736 173.674 28.4372C171.559 30.8008 170.502 34.2322 170.502 38.7313L170.502 45.1865C170.502 49.5878 171.559 52.9784 173.674 55.3584C175.788 57.7383 179.042 58.9284 183.435 58.9284C186.222 58.9284 188.681 58.5453 190.811 57.7792C192.943 57.013 194.86 56.0756 196.564 54.9672L195.729 63.2807C194.221 64.2262 192.295 65.0901 189.951 65.8727C187.607 66.6551 184.926 67.0462 181.911 67.0462L181.911 67.0462ZM219.099 67.0462C211.428 67.0462 205.682 65.2287 201.863 61.5936C198.043 57.9584 196.134 52.7178 196.134 45.8713L196.134 38.0467C196.134 31.298 197.912 26.0735 201.469 22.3732C205.026 18.6728 210.214 16.8227 217.034 16.8227C221.656 16.8227 225.509 17.6622 228.59 19.3412C231.672 21.0202 233.983 23.392 235.525 26.4566C237.065 29.5212 237.834 33.1564 237.834 37.3621L237.834 39.1715C237.834 40.2799 237.787 41.4047 237.688 42.5458C237.589 43.6869 237.458 44.7792 237.295 45.8225L228.443 45.8225C228.509 44.1271 228.549 42.5295 228.566 41.0298C228.582 39.5301 228.59 38.1608 228.59 36.9219C228.59 34.2811 228.164 32.0479 227.312 30.2222C226.46 28.3964 225.181 27.0027 223.476 26.0409C221.77 25.0792 219.624 24.5983 217.034 24.5983C213.198 24.5983 210.346 25.6823 208.477 27.8503C206.608 30.0184 205.674 33.1074 205.674 37.1175L205.674 41.6167L205.723 42.7414L205.723 46.9961C205.723 48.7893 205.994 50.4194 206.534 51.8865C207.076 53.3536 207.945 54.6167 209.141 55.6763C210.337 56.7359 211.886 57.5509 213.788 58.1214C215.69 58.692 218.001 58.9773 220.723 58.9773C223.804 58.9773 226.697 58.586 229.402 57.8036C232.107 57.0212 234.656 55.9779 237.049 54.6738L236.164 62.8406C234 64.1121 231.483 65.131 228.615 65.8971C225.747 66.6632 222.574 67.0462 219.099 67.0462L219.099 67.0462ZM201.248 45.8222L201.248 38.6335L235.326 38.6335L235.326 45.8222L201.248 45.8222ZM244.633 66.9484C242.667 66.9484 241.216 66.4187 240.281 65.3591C239.347 64.2995 238.88 62.8243 238.88 60.9334L238.88 60.4443C238.88 58.5535 239.347 57.0863 240.281 56.043C241.216 54.9998 242.667 54.4781 244.633 54.4781C246.568 54.4781 248.01 54.9998 248.96 56.043C249.911 57.0863 250.387 58.5535 250.387 60.4443L250.387 60.9334C250.387 62.8243 249.911 64.2995 248.96 65.3591C248.01 66.4187 246.568 66.9484 244.633 66.9484L244.633 66.9484ZM269.921 67.0462C266.052 67.0462 262.659 66.6469 259.741 65.8482C256.823 65.0494 254.381 64.1774 252.414 63.2318L251.529 54.4782C253.955 55.6844 256.626 56.7359 259.544 57.6324C262.462 58.529 265.74 58.9772 269.38 58.9772C272.887 58.9772 275.486 58.4638 277.174 57.4368C278.863 56.4098 279.707 54.8857 279.707 52.8643L279.707 52.4731C279.707 51.169 279.362 50.085 278.674 49.221C277.985 48.357 276.764 47.5828 275.01 46.8982C273.256 46.2135 270.773 45.5125 267.56 44.7953C263.528 43.8825 260.348 42.8066 258.02 41.5677C255.693 40.3288 254.028 38.8047 253.028 36.9953C252.029 35.1858 251.529 33.0097 251.529 30.4667L251.529 30.0265C251.529 25.7231 253.037 22.4629 256.053 20.2459C259.069 18.029 263.594 16.9205 269.625 16.9205C273.429 16.9205 276.739 17.328 279.559 18.1431C282.378 18.9581 284.706 19.8873 286.542 20.9305L287.427 28.9018C285.231 27.7281 282.731 26.7419 279.928 25.9432C277.125 25.1444 274.018 24.745 270.609 24.745C268.281 24.745 266.413 24.9651 265.003 25.4052C263.594 25.8453 262.577 26.4648 261.954 27.2635C261.331 28.0623 261.019 29.0159 261.019 30.1244L261.019 30.4667C261.019 31.673 261.347 32.7244 262.003 33.6209C262.659 34.5175 263.831 35.3163 265.519 36.0172C267.208 36.7181 269.56 37.3946 272.576 38.0467C276.641 38.8944 279.887 39.8887 282.313 41.0298C284.739 42.1709 286.493 43.6298 287.575 45.4066C288.657 47.1834 289.197 49.4737 289.197 52.2775L289.197 53.0111C289.197 57.6731 287.591 61.1779 284.378 63.5253C281.165 65.8727 276.347 67.0462 269.921 67.0462L269.921 67.0462ZM316.551 66.9973C313.699 66.9973 311.249 66.5491 309.199 65.6525C307.151 64.756 305.487 63.4844 304.208 61.838C302.93 60.1917 301.995 58.2763 301.405 56.092L298.209 56.092L300.913 47.0449C301.012 49.7183 301.585 51.9433 302.635 53.7202C303.683 55.4969 305.134 56.8256 306.986 57.7058C308.839 58.5859 310.977 59.0261 313.403 59.0261C317.109 59.0261 319.944 57.9584 321.91 55.823C323.878 53.6875 324.862 50.5496 324.862 46.4091L324.862 37.2642C324.862 33.189 323.886 30.0918 321.935 27.9726C319.985 25.8535 317.141 24.7939 313.403 24.7939C311.175 24.7939 309.191 25.2177 307.453 26.0654C305.716 26.913 304.282 28.0623 303.151 29.5131C302.02 30.9639 301.224 32.6184 300.766 34.4767L298.503 27.9237L301.307 27.9237C301.864 25.9024 302.75 24.0685 303.963 22.4221C305.175 20.7757 306.839 19.4635 308.953 18.4854C311.068 17.5073 313.732 17.0183 316.944 17.0183C322.681 17.0183 327.05 18.8114 330.049 22.3976C333.049 25.9839 334.549 31.2165 334.549 38.0956L334.549 45.6756C334.549 52.6198 333.04 57.9096 330.025 61.5446C327.009 65.1798 322.517 66.9973 316.551 66.9973L316.551 66.9973ZM291.522 82.7441L291.522 18.0942L301.16 18.0942L300.767 29.293L300.914 32.1294L300.914 52.1798L300.865 54.038L301.111 67.5842L301.111 82.7441L291.522 82.7441ZM366.327 65.9214L366.72 54.576L366.376 53.1089L366.376 38.0467L366.425 35.6504C366.425 31.9664 365.482 29.2604 363.597 27.5325C361.713 25.8046 358.688 24.9406 354.525 24.9406C351.148 24.9406 348.017 25.4134 345.133 26.3588C342.248 27.3043 339.642 28.3965 337.314 29.6353L338.199 21.6152C339.51 20.8653 341.051 20.1318 342.821 19.4146C344.592 18.6973 346.592 18.1105 348.821 17.654C351.049 17.1976 353.492 16.9694 356.148 16.9694C359.787 16.9694 362.868 17.4014 365.392 18.2653C367.917 19.1293 369.949 20.3763 371.491 22.0064C373.031 23.6365 374.154 25.5927 374.859 27.8748C375.563 30.157 375.916 32.6999 375.916 35.5037L375.916 65.9214L366.327 65.9214ZM350.05 66.9973C345.297 66.9973 341.658 65.8318 339.134 63.5008C336.609 61.1697 335.347 57.8524 335.347 53.5489L335.347 52.0818C335.347 47.5176 336.765 44.1351 339.6 41.9344C342.436 39.7338 346.903 38.2096 353 37.362L367.458 35.3081L367.999 42.2523L354.132 44.2084C350.821 44.6649 348.46 45.4555 347.051 46.5802C345.641 47.705 344.936 49.3596 344.936 51.5439L344.936 52.2285C344.936 54.413 345.617 56.0919 346.977 57.2656C348.338 58.4393 350.411 59.0261 353.197 59.0261C355.755 59.0261 357.95 58.6022 359.787 57.7546C361.622 56.907 363.115 55.774 364.262 54.3558C365.409 52.9377 366.196 51.3646 366.622 49.6367L367.95 56.043L366.18 56.043C365.655 57.9991 364.786 59.8085 363.573 61.4713C362.361 63.134 360.664 64.4706 358.483 65.4814C356.303 66.492 353.492 66.9973 350.05 66.9973L350.05 66.9973ZM399.777 67.0462C392.63 67.0462 387.327 65.1636 383.869 61.398C380.411 57.6324 378.681 52.3101 378.681 45.431L378.681 38.5357C378.681 31.6241 380.418 26.2936 383.894 22.5444C387.368 18.7951 392.663 16.9205 399.777 16.9205C401.744 16.9205 403.556 17.0998 405.211 17.4584C406.866 17.817 408.367 18.2816 409.71 18.8522C411.055 19.4227 412.202 20.0177 413.153 20.6371L413.988 28.8528C412.415 27.7444 410.596 26.8071 408.53 26.0409C406.465 25.2748 404.055 24.8917 401.301 24.8917C396.908 24.8917 393.654 26.0736 391.54 28.4372C389.425 30.8008 388.368 34.2322 388.368 38.7313L388.368 45.1865C388.368 49.5878 389.425 52.9784 391.54 55.3584C393.654 57.7383 396.908 58.9284 401.301 58.9284C404.088 58.9284 406.547 58.5453 408.677 57.7792C410.809 57.013 412.727 56.0756 414.431 54.9672L413.596 63.2807C412.087 64.2262 410.161 65.0901 407.817 65.8727C405.473 66.6551 402.792 67.0462 399.777 67.0462L399.777 67.0462ZM436.966 67.0462C429.295 67.0462 423.55 65.2287 419.731 61.5936C415.911 57.9584 414.002 52.7178 414.002 45.8713L414.002 38.0467C414.002 31.298 415.78 26.0735 419.338 22.3732C422.894 18.6728 428.082 16.8227 434.901 16.8227C439.524 16.8227 443.376 17.6622 446.458 19.3412C449.539 21.0202 451.849 23.392 453.391 26.4566C454.933 29.5212 455.702 33.1564 455.702 37.3621L455.702 39.1715C455.702 40.2799 455.653 41.4047 455.555 42.5458C455.456 43.6869 455.325 44.7792 455.161 45.8225L446.31 45.8225C446.376 44.1271 446.417 42.5295 446.432 41.0298C446.449 39.5301 446.458 38.1608 446.458 36.9219C446.458 34.2811 446.031 32.0479 445.179 30.2222C444.326 28.3964 443.049 27.0027 441.343 26.0409C439.638 25.0792 437.491 24.5983 434.901 24.5983C431.066 24.5983 428.214 25.6823 426.344 27.8503C424.476 30.0184 423.542 33.1074 423.542 37.1175L423.542 41.6167L423.591 42.7414L423.591 46.9961C423.591 48.7893 423.862 50.4194 424.403 51.8865C424.944 53.3536 425.812 54.6167 427.008 55.6763C428.205 56.7359 429.754 57.5509 431.655 58.1214C433.557 58.692 435.869 58.9773 438.59 58.9773C441.671 58.9773 444.564 58.586 447.268 57.8036C449.973 57.0212 452.522 55.9779 454.915 54.6738L454.03 62.8406C451.866 64.1121 449.351 65.131 446.482 65.8971C443.614 66.6632 440.442 67.0462 436.966 67.0462L436.966 67.0462ZM419.117 45.8222L419.117 38.6335L453.195 38.6335L453.195 45.8222L419.117 45.8222Z" fill="#260C1A" transform="translate(269.297 0)" />
    <path d="M7.70154 1.50471L11.3784 1.50471L19.0799 22.5707L15.7512 22.5707L14.2834 18.5682L4.79648 18.5682L3.34387 22.5707L0 22.5707L7.70154 1.50471ZM5.96179 15.4384L13.1187 15.4384L9.53226 5.65773L5.96179 15.4384ZM32.8521 22.5707L27.435 1.50471L30.6734 1.50471L34.6374 16.9582L38.5866 1.50471L41.4466 1.50471L45.4106 16.9582L49.3754 1.50471L52.6125 1.50471L47.2263 22.5707L43.6104 22.5707L40.0244 8.62204L36.4378 22.5707L32.8521 22.5707ZM68.3641 13.1362L68.3641 22.5707L65.2171 22.5707L65.2171 13.9035C65.2171 13.2315 65.0532 12.6195 64.7252 12.0678C64.3976 11.5161 63.9586 11.0773 63.4088 10.7512C62.8593 10.4251 62.2415 10.2622 61.5555 10.2622C60.8896 10.2622 60.2794 10.4251 59.7245 10.7512C59.1696 11.0773 58.7262 11.5161 58.3932 12.0678C58.0602 12.6195 57.8939 13.2315 57.8939 13.9035L57.8939 22.5707L54.7465 22.5707L54.7465 0L57.8939 0L57.8939 9.11852C58.418 8.49662 59.0638 8.00509 59.8305 7.64394C60.597 7.28287 61.4243 7.10229 62.3119 7.10229C63.4312 7.10229 64.4501 7.37309 65.3682 7.91482C66.2863 8.45651 67.015 9.1838 67.5547 10.0966C68.0945 11.0095 68.3641 12.0227 68.3641 13.1362L68.3641 13.1362ZM80.5178 7.52355L83.8763 7.52355L75.5851 30.0942L72.2409 30.0942L74.9799 22.5707L69.5475 7.52355L72.9822 7.52355L76.5533 18.2822L80.5178 7.52355ZM93.941 10.6534L90.7635 10.6534L90.7485 22.5707L87.6013 22.5707L87.6162 10.6534L85.2106 10.6534L85.2106 7.52361L87.6162 7.52361L87.6013 2.79875L90.7485 2.79875L90.7635 7.52361L93.941 7.52361L93.941 10.6534ZM102.354 22.9619C100.962 22.9619 99.6934 22.6059 98.5486 21.8937C97.4035 21.1813 96.4906 20.2258 95.8095 19.027C95.1288 17.8284 94.7886 16.5016 94.7886 15.0472C94.7886 13.9436 94.9853 12.9129 95.379 11.9549C95.7717 10.9969 96.3138 10.1543 97.005 9.42693C97.6961 8.69965 98.5009 8.13032 99.4187 7.71916C100.337 7.30779 101.315 7.10222 102.354 7.10222C103.514 7.10222 104.578 7.34038 105.547 7.81689C106.515 8.2934 107.342 8.95043 108.028 9.7881C108.714 10.6258 109.219 11.5888 109.541 12.6772C109.865 13.7656 109.96 14.9217 109.828 16.1456L98.163 16.1456C98.2939 16.8376 98.5486 17.4622 98.9272 18.019C99.3052 18.5757 99.7896 19.0146 100.379 19.3355C100.97 19.6566 101.627 19.822 102.354 19.8322C103.121 19.8322 103.819 19.6416 104.45 19.2603C105.08 18.8792 105.597 18.3525 106 17.6803L109.193 18.4176C108.588 19.7518 107.675 20.8428 106.454 21.6905C105.234 22.5381 103.867 22.9619 102.354 22.9619L102.354 22.9619ZM98.0576 13.7531L106.652 13.7531C106.551 13.031 106.296 12.3764 105.888 11.7897C105.479 11.2028 104.97 10.7362 104.359 10.3902C103.749 10.0441 103.081 9.87098 102.355 9.87098C101.638 9.87098 100.975 10.0414 100.365 10.3825C99.7548 10.7238 99.2502 11.1877 98.8518 11.7746C98.4535 12.3614 98.1885 13.0209 98.0576 13.7531L98.0576 13.7531ZM123.358 22.5707L117.941 1.50471L121.179 1.50471L125.143 16.9582L129.093 1.50471L131.953 1.50471L135.916 16.9582L139.881 1.50471L143.119 1.50471L137.732 22.5707L134.116 22.5707L130.53 8.62204L126.944 22.5707L123.358 22.5707ZM149.869 22.9619C148.478 22.9619 147.209 22.6059 146.064 21.8937C144.919 21.1813 144.006 20.2258 143.326 19.027C142.645 17.8284 142.304 16.5016 142.304 15.0472C142.304 13.9436 142.501 12.9129 142.895 11.9549C143.287 10.9969 143.829 10.1543 144.521 9.42693C145.212 8.69965 146.016 8.13032 146.934 7.71916C147.852 7.30779 148.83 7.10222 149.869 7.10222C151.03 7.10222 152.094 7.34038 153.062 7.81689C154.031 8.2934 154.858 8.95043 155.544 9.7881C156.23 10.6258 156.734 11.5888 157.057 12.6772C157.38 13.7656 157.475 14.9217 157.344 16.1456L145.678 16.1456C145.81 16.8376 146.064 17.4622 146.443 18.019C146.821 18.5757 147.305 19.0146 147.895 19.3355C148.486 19.6566 149.143 19.822 149.869 19.8322C150.636 19.8322 151.335 19.6416 151.965 19.2603C152.596 18.8792 153.113 18.3525 153.516 17.6803L156.709 18.4176C156.103 19.7518 155.191 20.8428 153.97 21.6905C152.75 22.5381 151.383 22.9619 149.869 22.9619L149.869 22.9619ZM145.573 13.7531L154.167 13.7531C154.067 13.031 153.812 12.3764 153.404 11.7897C152.995 11.2028 152.485 10.7362 151.875 10.3902C151.265 10.0441 150.597 9.87098 149.871 9.87098C149.154 9.87098 148.491 10.0414 147.88 10.3825C147.271 10.7238 146.766 11.1877 146.367 11.7746C145.969 12.3614 145.704 13.0209 145.573 13.7531L145.573 13.7531ZM166.939 7.10224C168.412 7.10224 169.75 7.45843 170.956 8.17066C172.161 8.88285 173.122 9.83834 173.838 11.0371C174.554 12.2358 174.913 13.5675 174.913 15.0322C174.913 16.1256 174.705 17.1513 174.292 18.1092C173.878 19.0674 173.306 19.9099 172.574 20.6372C171.843 21.3645 170.996 21.9338 170.033 22.345C169.07 22.7563 168.038 22.9619 166.939 22.9619C165.88 22.9619 164.954 22.7187 164.163 22.2322C163.37 21.7456 162.723 21.1213 162.218 20.3588L162.218 22.5708L159.071 22.5708L159.071 7.62939e-06L162.218 7.62939e-06L162.218 9.70548C162.723 8.93302 163.37 8.3061 164.163 7.82459C164.954 7.34304 165.88 7.10224 166.939 7.10224L166.939 7.10224ZM166.91 19.9224C167.787 19.9224 168.59 19.7017 169.316 19.2604C170.042 18.819 170.62 18.2271 171.048 17.4847C171.477 16.7424 171.69 15.9248 171.69 15.0321C171.69 14.1193 171.475 13.2916 171.041 12.5492C170.607 11.8069 170.027 11.2177 169.3 10.7813C168.574 10.345 167.777 10.1267 166.91 10.1267C166.032 10.1267 165.26 10.3474 164.594 10.7887C163.929 11.2301 163.409 11.822 163.035 12.5644C162.662 13.3068 162.476 14.1292 162.476 15.0321C162.476 15.9349 162.662 16.7575 163.035 17.4998C163.409 18.2422 163.929 18.8314 164.594 19.2678C165.26 19.7041 166.032 19.9224 166.91 19.9224L166.91 19.9224ZM182.631 1.50471L186.307 1.50471L194.009 22.5707L190.68 22.5707L189.212 18.5682L179.726 18.5682L178.273 22.5707L174.929 22.5707L182.631 1.50471ZM180.892 15.4384L188.049 15.4384L184.463 5.65773L180.892 15.4384ZM195.888 22.5707L195.888 7.52366L199.036 7.52366L199.036 9.11852C199.56 8.49658 200.206 8.0051 200.973 7.64388C201.74 7.2827 202.566 7.10227 203.455 7.10227C204.02 7.10227 204.579 7.17764 205.133 7.32809L203.879 10.4878C203.485 10.3373 203.092 10.2622 202.698 10.2622C202.033 10.2622 201.422 10.4252 200.867 10.7512C200.313 11.0772 199.868 11.5161 199.535 12.0678C199.203 12.6196 199.036 13.2315 199.036 13.9035L199.036 22.5707L195.888 22.5707ZM214.65 10.6534L211.473 10.6534L211.458 22.5707L208.31 22.5707L208.325 10.6534L205.919 10.6534L205.919 7.52361L208.325 7.52361L208.31 2.79875L211.458 2.79875L211.473 7.52361L214.65 7.52361L214.65 10.6534ZM223.445 22.5707L223.445 1.50471L230.739 1.50471C231.878 1.50471 232.91 1.78555 233.833 2.34726C234.756 2.90916 235.491 3.66644 236.042 4.61946C236.592 5.57243 236.866 6.62572 236.866 7.77937C236.866 8.95311 236.586 10.0139 236.027 10.9619C235.467 11.9098 234.723 12.6647 233.795 13.2265C232.867 13.7882 231.848 14.0691 230.739 14.0691L226.593 14.0691L226.593 22.5707L223.445 22.5707ZM226.592 10.9392L230.421 10.9392C231.026 10.9392 231.578 10.7887 232.078 10.4878C232.577 10.1869 232.976 9.78561 233.273 9.28417C233.571 8.78249 233.718 8.21581 233.718 7.58374C233.718 6.95168 233.571 6.38242 233.273 5.87594C232.976 5.36932 232.577 4.96798 232.078 4.67207C231.578 4.37617 231.026 4.22823 230.421 4.22823L226.592 4.22823L226.592 10.9392ZM238.745 22.5707L238.745 7.52366L241.892 7.52366L241.892 9.11852C242.416 8.49658 243.062 8.0051 243.828 7.64388C244.596 7.2827 245.422 7.10227 246.311 7.10227C246.876 7.10227 247.435 7.17764 247.99 7.32809L246.734 10.4878C246.34 10.3373 245.947 10.2622 245.553 10.2622C244.888 10.2622 244.278 10.4252 243.723 10.7512C243.168 11.0772 242.725 11.5161 242.392 12.0678C242.058 12.6196 241.892 13.2315 241.892 13.9035L241.892 22.5707L238.745 22.5707ZM255.071 22.9619C253.68 22.9619 252.411 22.6059 251.266 21.8937C250.122 21.1813 249.209 20.2258 248.529 19.027C247.847 17.8284 247.507 16.5016 247.507 15.0472C247.507 13.9436 247.703 12.9129 248.097 11.9549C248.49 10.9969 249.032 10.1543 249.723 9.42693C250.414 8.69965 251.219 8.13032 252.137 7.71916C253.054 7.30779 254.033 7.10222 255.071 7.10222C256.464 7.10222 257.731 7.45822 258.877 8.17057C260.021 8.88288 260.934 9.84079 261.615 11.0445C262.296 12.2483 262.638 13.5825 262.638 15.0472C262.638 16.1405 262.44 17.1637 262.046 18.1168C261.653 19.0697 261.111 19.9098 260.42 20.6371C259.729 21.3644 258.927 21.9338 258.014 22.345C257.102 22.7563 256.121 22.9619 255.071 22.9619L255.071 22.9619ZM255.069 19.8321C255.907 19.8321 256.658 19.6115 257.324 19.1701C257.99 18.7287 258.516 18.1444 258.905 17.4172C259.293 16.6898 259.489 15.8998 259.489 15.0472C259.489 14.1743 259.289 13.372 258.89 12.6397C258.492 11.9074 257.959 11.3231 257.294 10.8866C256.628 10.4503 255.887 10.2321 255.069 10.2321C254.243 10.2321 253.494 10.4527 252.824 10.8941C252.153 11.3354 251.622 11.9223 251.234 12.6547C250.846 13.387 250.652 14.1845 250.652 15.0472C250.652 15.9399 250.854 16.7475 251.258 17.4697C251.661 18.192 252.197 18.7663 252.869 19.1928C253.539 19.619 254.273 19.8321 255.069 19.8321L255.069 19.8321ZM276.258 7.62939e-06L279.406 7.62939e-06L279.406 22.5708L276.258 22.5708L276.258 20.3588C275.764 21.1413 275.119 21.7707 274.321 22.2473C273.525 22.7238 272.592 22.9619 271.523 22.9619C270.423 22.9619 269.393 22.7563 268.436 22.345C267.477 21.9338 266.633 21.3645 265.902 20.6372C265.17 19.9099 264.598 19.0698 264.184 18.1168C263.77 17.1638 263.564 16.1406 263.564 15.0472C263.564 13.9537 263.77 12.928 264.184 11.97C264.598 11.0121 265.17 10.1694 265.902 9.44212C266.633 8.71485 267.477 8.14552 268.436 7.73424C269.393 7.32294 270.423 7.11736 271.523 7.11736C272.592 7.11736 273.525 7.35562 274.321 7.83208C275.119 8.30856 275.764 8.93302 276.258 9.70548L276.258 7.62939e-06ZM271.547 19.9374C272.435 19.9374 273.212 19.719 273.877 19.2828C274.543 18.8464 275.059 18.2571 275.428 17.5148C275.796 16.7725 275.981 15.9499 275.981 15.0471C275.981 14.1343 275.793 13.3066 275.42 12.5642C275.047 11.8219 274.53 11.2327 273.869 10.7963C273.209 10.36 272.435 10.1417 271.547 10.1417C270.67 10.1417 269.87 10.3624 269.15 10.8037C268.428 11.2451 267.853 11.8371 267.424 12.5795C266.997 13.3218 266.781 14.1442 266.781 15.0471C266.781 15.96 267 16.7851 267.44 17.5224C267.879 18.2597 268.458 18.8464 269.179 19.2828C269.901 19.719 270.69 19.9374 271.547 19.9374L271.547 19.9374ZM281.842 16.928L281.842 7.52363L284.989 7.52363L284.989 16.1606C284.989 16.8327 285.156 17.4447 285.489 17.9964C285.821 18.5481 286.265 18.9869 286.82 19.313C287.375 19.639 287.985 19.802 288.65 19.802C289.327 19.802 289.939 19.639 290.489 19.313C291.039 18.9869 291.478 18.5481 291.805 17.9964C292.133 17.4447 292.297 16.8327 292.297 16.1606L292.297 7.52363L295.444 7.52363L295.46 22.5706L292.312 22.5706L292.297 20.9456C291.783 21.5676 291.143 22.059 290.376 22.4201C289.609 22.7813 288.786 22.962 287.909 22.962C286.79 22.962 285.771 22.691 284.853 22.1494C283.935 21.6076 283.204 20.8803 282.66 19.9676C282.114 19.0546 281.842 18.0415 281.842 16.928L281.842 16.928ZM307.581 18.2973L310.396 19.8171C309.71 20.7701 308.841 21.5324 307.787 22.1042C306.732 22.6761 305.589 22.9619 304.359 22.9619C302.967 22.9619 301.698 22.6059 300.553 21.8937C299.409 21.1813 298.496 20.2258 297.816 19.027C297.134 17.8284 296.794 16.5016 296.794 15.0472C296.794 13.9436 296.99 12.9129 297.384 11.9549C297.777 10.9969 298.32 10.1543 299.011 9.42693C299.701 8.69965 300.506 8.13032 301.424 7.71916C302.341 7.30779 303.32 7.10222 304.359 7.10222C305.589 7.10222 306.732 7.38811 307.787 7.95988C308.841 8.53165 309.71 9.2991 310.396 10.2621L307.581 11.7819C307.159 11.2803 306.664 10.8966 306.099 10.6308C305.534 10.3649 304.955 10.232 304.359 10.232C303.532 10.232 302.782 10.4552 302.112 10.9015C301.442 11.348 300.912 11.9348 300.523 12.6622C300.135 13.3895 299.941 14.1844 299.941 15.0472C299.941 15.8998 300.138 16.6898 300.531 17.4171C300.924 18.1442 301.456 18.7287 302.127 19.1701C302.798 19.6115 303.542 19.8322 304.359 19.8322C304.984 19.8322 305.579 19.6917 306.144 19.4108C306.71 19.13 307.188 18.7588 307.581 18.2973L307.581 18.2973ZM320.519 10.6534L317.341 10.6534L317.327 22.5707L314.18 22.5707L314.195 10.6534L311.789 10.6534L311.789 7.52361L314.195 7.52361L314.18 2.79875L317.327 2.79875L317.341 7.52361L320.519 7.52361L320.519 10.6534Z" fill="#8A7881" transform="translate(263.477 84.534)" />
  </g>
</svg>