<?xml version="1.0" encoding="utf-8"?>
<svg width="1480" height="599" viewBox="0 0 1480 599" fill="none" xmlns="http://www.w3.org/2000/svg">
  <g>
    <path d="M75 0L75 77L0 77L0 276L302 276L302 522L0 522L0 599L302 599L302 522L377 522L377 276L302 276L302 199L75 199L75 77L377 77L377 0L75 0L75 0ZM531 0L531 77L456 77L456 522L531 522L531 599L755 599L755 522L830 522L830 77L755 77L755 0L531 0L531 0ZM531 77L755 77L755 522L531 522L531 77L531 77ZM984 0L984 77L909 77L909 522L984 522L984 599L1208 599L1208 522L1283 522L1283 77L1208 77L1208 0L984 0L984 0ZM984 77L1208 77L1208 522L984 522L984 77L984 77Z" fill="#260C1A" fill-rule="evenodd" transform="translate(98 0)" />
  </g>
</svg>