<?xml version="1.0" encoding="utf-8"?>
<svg width="38" height="38" viewBox="0 0 38 38" fill="none" xmlns="http://www.w3.org/2000/svg">
  <defs>
    <radialGradient id="gradient_1" gradientUnits="userSpaceOnUse" cx="0" cy="0" r="1" gradientTransform="matrix(0 -37.661 35.028 0 10.094 40.927)">
      <stop offset="0" stop-color="#FFDD55" />
      <stop offset="0.1" stop-color="#FFDD55" />
      <stop offset="0.5" stop-color="#FF543E" />
      <stop offset="1" stop-color="#C837AB" />
    </radialGradient>
    <radialGradient id="gradient_2" gradientUnits="userSpaceOnUse" cx="0" cy="0" r="1" gradientTransform="matrix(3.304 16.507 -68.043 13.621 -6.365 2.737)">
      <stop offset="0" stop-color="#3771C8" />
      <stop offset="0.128" stop-color="#3771C8" />
      <stop offset="1" stop-color="#6600FF" stop-opacity="0" />
    </radialGradient>
  </defs>
  <g>
    <path d="M0 17.8125L0 8.90625C0 6.44686 0.869527 4.34763 2.60858 2.60858C4.34763 0.869527 6.44686 0 8.90625 0L29.0938 0C31.5531 0 33.6524 0.869527 35.3914 2.60858C37.1305 4.34763 38 6.44686 38 8.90625L38 29.0938C38 31.5531 37.1305 33.6524 35.3914 35.3914C33.6524 37.1305 31.5531 38 29.0938 38L8.90625 38C6.44686 38 4.34763 37.1305 2.60858 35.3914C0.869527 33.6524 0 31.5531 0 29.0938L0 17.8125Z" fill="url(#gradient_1)" fill-rule="evenodd" transform="scale(1 1)" />
    <path d="M0 17.8125L0 8.90625C0 6.44686 0.869527 4.34763 2.60858 2.60858C4.34763 0.869527 6.44686 0 8.90625 0L29.0938 0C31.5531 0 33.6524 0.869527 35.3914 2.60858C37.1305 4.34763 38 6.44686 38 8.90625L38 29.0938C38 31.5531 37.1305 33.6524 35.3914 35.3914C33.6524 37.1305 31.5531 38 29.0938 38L8.90625 38C6.44686 38 4.34763 37.1305 2.60858 35.3914C0.869527 33.6524 0 31.5531 0 29.0938L0 17.8125Z" fill="url(#gradient_2)" fill-rule="evenodd" transform="scale(1 1)" />
    <path d="M14.8451 3.33786e-06C10.8138 3.33786e-06 10.3078 0.0176673 8.72456 0.0896597C7.1443 0.162097 6.0656 0.412214 5.12184 0.7793C4.14541 1.15841 3.31728 1.66562 2.49227 2.49093C1.66651 3.31609 1.1593 4.14423 0.779 5.1202C0.410875 6.06426 0.160461 7.1434 0.0893593 8.72293C0.0185547 10.3063 0 10.8125 0 14.8439C0 18.8753 0.0178127 19.3797 0.0896564 20.9629C0.162391 22.5432 0.412508 23.6219 0.779297 24.5656C1.1587 25.5421 1.66591 26.3702 2.49123 27.1952C3.31609 28.021 4.14423 28.5294 5.11991 28.9085C6.06441 29.2756 7.14326 29.5257 8.72323 29.5981C10.3066 29.6701 10.8122 29.6878 14.8433 29.6878C18.875 29.6878 19.3794 29.6701 20.9626 29.5981C22.5429 29.5257 23.6228 29.2756 24.5673 28.9085C25.5433 28.5294 26.3702 28.021 27.1949 27.1952C28.0207 26.3702 28.5278 25.5421 28.9082 24.5661C29.2731 23.6219 29.5236 22.5429 29.5978 20.9632C29.6689 19.38 29.6875 18.8753 29.6875 14.8439C29.6875 10.8125 29.6689 10.3066 29.5978 8.72322C29.5236 7.14295 29.2731 6.06441 28.9082 5.12064C28.5278 4.14422 28.0207 3.31609 27.1949 2.49093C26.3693 1.66532 25.5436 1.15811 24.5664 0.779445C23.6201 0.41221 22.5408 0.161945 20.9606 0.0896564C19.3772 0.017664 18.8731 0 14.8405 0C14.8405 0 14.8451 3.33786e-06 14.8451 3.33786e-06ZM13.514 2.6751C13.9093 2.6745 14.3503 2.6751 14.8457 2.6751C18.8091 2.6751 19.2787 2.68935 20.8439 2.76045C22.2911 2.82665 23.0767 3.06846 23.5999 3.27167C24.2927 3.54064 24.7865 3.8623 25.3058 4.38198C25.8253 4.90151 26.1468 5.39625 26.4165 6.08901C26.6197 6.61151 26.8618 7.39704 26.9277 8.84431C26.9988 10.4091 27.0143 10.8791 27.0143 14.8406C27.0143 18.8021 26.9988 19.2722 26.9277 20.8369C26.8615 22.2841 26.6197 23.0697 26.4165 23.5923C26.1475 24.2851 25.8253 24.7783 25.3058 25.2976C24.7862 25.8171 24.293 26.1386 23.5999 26.4077C23.0773 26.6118 22.2911 26.853 20.8439 26.9192C19.279 26.9903 18.8091 27.0058 14.8457 27.0058C10.8821 27.0058 10.4123 26.9903 8.8476 26.9192C7.40034 26.8524 6.6148 26.6106 6.09112 26.4074C5.39851 26.1383 4.90362 25.8168 4.38409 25.2973C3.86455 24.7777 3.54304 24.2842 3.27333 23.5911C3.07012 23.0685 2.82802 22.2829 2.76211 20.8357C2.69101 19.2708 2.67676 18.8009 2.67676 14.8369C2.67676 10.8729 2.69101 10.4054 2.76211 8.8406C2.82831 7.39333 3.07012 6.6078 3.27333 6.08456C3.54245 5.3918 3.86455 4.89706 4.38423 4.37753C4.90391 3.858 5.39851 3.53633 6.09126 3.26677C6.61451 3.06267 7.40034 2.82146 8.8476 2.75496C10.2169 2.69306 10.7476 2.6745 13.514 2.67139C13.514 2.67139 13.514 2.6751 13.514 2.6751ZM22.7686 5.13975C21.7852 5.13975 20.9873 5.93686 20.9873 6.92041C20.9873 7.90381 21.7852 8.70166 22.7686 8.70166C23.752 8.70166 24.5498 7.90381 24.5498 6.92041C24.5498 5.93701 23.752 5.13916 22.7686 5.13916C22.7686 5.13916 22.7686 5.13975 22.7686 5.13975ZM14.8455 7.2207C10.6358 7.2207 7.22266 10.6339 7.22266 14.8437C7.22266 19.0535 10.6358 22.4651 14.8455 22.4651C19.0554 22.4651 22.4673 19.0535 22.4673 14.8437C22.4673 10.634 19.0551 7.22071 14.8452 7.22071C14.8452 7.22071 14.8455 7.2207 14.8455 7.2207ZM14.8453 9.896C17.5779 9.896 19.7933 12.1111 19.7933 14.844C19.7933 17.5766 17.5779 19.792 14.8453 19.792C12.1127 19.792 9.89746 17.5766 9.89746 14.844C9.89746 12.1111 12.1126 9.896 14.8453 9.896C14.8453 9.896 14.8453 9.896 14.8453 9.896Z" fill="#FFFFFF" transform="matrix(1 0 0 1 4.154 4.155)" />
  </g>
</svg>
