<?xml version="1.0" encoding="utf-8"?>
<svg width="63.188" height="28" viewBox="0 0 63.188 28" fill="none" xmlns="http://www.w3.org/2000/svg">
  <g transform="translate(-0 0)">
    <g>
      <path d="M8.56457 10.1707C11.6528 10.1707 12.1057 11.653 12.1057 12.5177C12.1057 13.5471 11.5704 14.2883 10.4587 14.8236C10.4587 14.8236 10.3352 14.8648 10.3352 14.8648C10.3352 14.8648 10.5822 15.2765 10.5822 15.2765C11.6528 17.1706 12.9704 19.5589 15.1528 20.053C15.1528 20.053 15.1528 20.1353 15.1528 20.1353C14.741 20.2589 14.3704 20.3412 13.9999 20.3412C13.1763 20.3412 12.4352 20.0118 11.7352 19.2295C11.0763 18.5295 10.3352 17.5 9.67634 16.3059C9.42928 15.8942 8.97634 15.153 8.60575 14.9883C8.60575 14.9883 8.60575 14.9059 8.60575 14.9059C9.2234 14.7412 10.6646 14.2059 10.6646 12.7236C10.6646 11.0765 9.05869 10.2942 7.49399 10.2942C7.49399 10.2942 7.37046 10.2942 7.37046 10.2942C7.37046 10.2942 7.37046 17.7059 7.37046 17.7059C7.37046 19.353 7.41164 19.6412 9.34693 19.9295C9.34693 19.9295 9.34693 20.053 9.34693 20.053L4.28223 20.053C4.28223 20.053 4.28223 19.9295 4.28223 19.9295C6.01164 19.6824 6.01164 19.2295 6.05281 17.7059C6.05281 17.7059 6.05281 12.9295 6.05281 12.9295C6.05281 10.953 5.92928 10.5412 4.36458 10.4177C4.36458 10.4177 4.36458 10.2942 4.36458 10.2942L8.23516 10.1707L8.56457 10.1707C8.56457 10.1707 8.56457 10.1707 8.56457 10.1707ZM10.377 5.4353C12.724 5.47648 14.9475 5.84707 16.6358 6.46471C16.6358 6.46471 16.6769 6.46471 16.6769 6.46471C16.6769 6.46471 13.8769 6.46471 13.8769 6.46471C13.2181 6.46471 11.0358 6.38236 10.377 5.4353C10.377 5.4353 10.377 5.4353 10.377 5.4353ZM1.06981 7.78224C0.987453 7.78224 0.863924 7.82342 0.822748 7.90577C0.740395 7.98813 0.699219 8.07048 0.699219 8.19401C0.987453 23.2646 8.02861 26.8881 9.42861 27.4645C9.42861 27.4645 9.51097 27.4645 9.51097 27.4645C10.1698 27.2175 11.8992 26.3528 13.6286 24.1704C15.6462 21.6999 18.0757 16.8822 18.2404 8.19401C18.2404 8.07048 18.1992 7.98812 18.1168 7.90577C18.0345 7.82342 17.9521 7.78224 17.8698 7.78224C17.8698 7.78224 13.8757 7.78224 13.8757 7.78224C11.8992 7.78224 10.3757 7.37048 9.59332 6.54695C9.59332 6.54695 9.46979 6.4646 9.46979 6.4646C9.46979 6.4646 9.38744 6.54695 9.38744 6.54695C8.56391 7.37048 7.08156 7.78224 5.10509 7.78224C5.10509 7.78224 1.06981 7.78224 1.06981 7.78224C1.06981 7.78224 1.06981 7.78224 1.06981 7.78224ZM9.47074 27.9999C8.85309 27.7941 0.535465 24.7058 0.206055 8.19412C0.206055 7.94707 0.288407 7.74118 0.453113 7.5353C0.617818 7.3706 0.8237 7.28824 1.07076 7.28824C1.07076 7.28824 5.10604 7.28824 5.10604 7.28824C6.25898 7.28824 8.85309 7.12354 9.47074 5.55884C10.1296 7.12354 12.7237 7.28824 13.8354 7.28824C13.8354 7.28824 17.8295 7.28824 17.8295 7.28824C18.0766 7.28824 18.2825 7.3706 18.4472 7.5353C18.6119 7.70001 18.6942 7.94707 18.6942 8.19412C18.406 24.7058 10.0884 27.7941 9.47074 27.9999C9.47074 27.9999 9.47074 27.9999 9.47074 27.9999ZM9.5121 3.95301C12.9297 3.95301 15.6062 4.32359 17.7886 5.14712C17.8297 5.14712 17.8709 5.1883 17.9121 5.1883C18.3239 5.1883 18.365 4.94124 18.365 4.85888C18.365 4.653 18.2827 4.52947 18.118 4.44712C15.8121 3.58242 12.9297 3.17065 9.5121 3.17065C6.13564 3.17065 3.21212 3.58242 0.906238 4.44712C0.741533 4.4883 0.65918 4.653 0.65918 4.85888C0.65918 4.94124 0.700356 5.1883 1.11212 5.1883C1.1533 5.1883 1.19447 5.1883 1.23565 5.14712C3.37682 4.32359 6.09446 3.95301 9.5121 3.95301C9.5121 3.95301 9.5121 3.95301 9.5121 3.95301ZM8.64667 5.4353C7.98785 6.38236 5.8055 6.46471 5.14668 6.46471C5.14668 6.46471 2.34668 6.46471 2.34668 6.46471C2.34668 6.46471 2.38786 6.46471 2.38786 6.46471C4.07609 5.84707 6.29961 5.47648 8.64667 5.4353C8.64667 5.4353 8.64667 5.4353 8.64667 5.4353ZM9.51142 2.51172C12.9702 2.51172 15.9349 2.96466 18.282 3.82936C18.6526 3.95289 18.8996 4.32348 18.8996 4.77642C18.8996 5.31171 18.5291 5.6823 17.9938 5.72347C17.9938 5.72347 17.4585 5.64112 17.4585 5.64112C15.3996 4.89995 12.8055 4.52936 9.51143 4.52936C6.21731 4.52936 3.6232 4.89995 1.52321 5.64112C1.52321 5.64112 0.987912 5.72347 0.987912 5.72347C0.452619 5.6823 0.0820313 5.31171 0.0820313 4.77642C0.0820313 4.32348 0.32909 3.95289 0.699677 3.82936C3.08791 2.96466 6.05261 2.51172 9.51143 2.51172C9.51143 2.51172 9.51142 2.51172 9.51142 2.51172ZM18.3237 1.52344C18.6531 1.52344 18.9414 1.81167 18.9414 2.18226C18.9414 2.59402 18.6531 2.88226 18.3237 2.88226C17.9943 2.88226 17.7061 2.59402 17.7061 2.22343C17.6649 1.85285 17.9531 1.52344 18.3237 1.52344C18.3237 1.52344 18.3237 1.52344 18.3237 1.52344ZM0.617646 1.52344C0.988233 1.52344 1.23529 1.81167 1.23529 2.18226C1.27647 2.59402 0.988233 2.88226 0.617646 2.88226C0.288235 2.88226 0 2.59402 0 2.22343C0 1.85285 0.288235 1.52344 0.617646 1.52344C0.617646 1.52344 0.617646 1.52344 0.617646 1.52344ZM13.9174 0.370605C14.2469 0.370605 14.5351 0.65884 14.5351 1.02943C14.5351 1.40001 14.2469 1.68825 13.9174 1.68825C13.588 1.68825 13.2998 1.40001 13.2998 1.02943C13.2998 0.65884 13.588 0.370605 13.9174 0.370605C13.9174 0.370605 13.9174 0.370605 13.9174 0.370605ZM4.9819 0.370605C5.31132 0.370605 5.59955 0.65884 5.59955 1.02943C5.59955 1.40001 5.31132 1.68825 4.9819 1.68825C4.65249 1.68825 4.36426 1.40001 4.36426 1.02943C4.36426 0.65884 4.65249 0.370605 4.9819 0.370605C4.9819 0.370605 4.9819 0.370605 4.9819 0.370605ZM9.43015 0C9.75956 0 10.0478 0.288235 10.0478 0.658822C10.0478 1.02941 9.75956 1.31764 9.43015 1.31764C9.10073 1.31764 8.8125 1.02941 8.8125 0.658822C8.8125 0.288235 9.10073 0 9.43015 0C9.43015 0 9.43015 0 9.43015 0Z" fill="#D32F2F" />
    </g>
    <g transform="translate(24.064 3.644)">
      <path d="M16.9919 1.57275C16.9919 1.57275 16.9919 1.68782 16.9919 1.68782C16.4933 1.72618 16.2632 1.84125 16.2632 2.4933C16.2632 2.4933 16.2632 7.32616 16.2632 7.32616C16.2632 8.66863 15.6111 9.55082 14.3454 9.89602C14.3454 9.89602 14.1152 9.66589 14.1152 9.66589C15.1892 9.32068 15.3043 8.47685 15.3043 7.86315C15.3043 7.86315 15.3043 2.4933 15.3043 2.4933C15.3043 1.8796 15.0741 1.76453 14.5755 1.68782C14.5755 1.68782 14.5755 1.57275 14.5755 1.57275L16.9919 1.57275L16.9919 1.57275ZM3.52876 0C5.56163 0 6.75067 0.805478 6.75067 2.1863C6.75067 3.33698 5.86848 3.98903 5.10136 4.33424C5.10136 4.33424 5.02465 4.37259 5.02465 4.37259C5.02465 4.37259 5.06301 4.44931 5.06301 4.44931C6.17533 6.40547 7.63286 8.66848 9.4356 8.93697C9.4356 8.93697 9.4356 9.05204 9.4356 9.05204C9.0904 9.16711 8.74519 9.20546 8.43834 9.20546C6.86574 9.20546 5.98355 7.863 5.10136 6.52054C5.10136 6.52054 4.87123 6.17533 4.87123 6.17533C4.75616 6.02191 4.67945 5.86848 4.56438 5.6767C4.25753 5.13972 3.91232 4.60273 3.52876 4.48766C3.52876 4.48766 3.56712 4.33424 3.56712 4.33424C4.87123 3.98903 5.59999 3.29862 5.59999 2.37808C5.59999 1.18904 4.64109 0.460273 3.06849 0.460273C2.83835 0.460273 2.64657 0.460273 2.45479 0.498629C2.45479 0.498629 2.37808 0.498629 2.37808 0.498629C2.37808 0.498629 2.37808 7.05752 2.37808 7.05752C2.37808 8.28492 2.49315 8.59177 3.60547 8.70683C3.60547 8.70683 3.60547 8.86026 3.60547 8.86026L0 8.86026C0 8.86026 0 8.74519 0 8.74519C1.11233 8.59177 1.2274 8.28492 1.2274 6.98081C1.2274 6.98081 1.2274 1.99452 1.2274 1.99452C1.2274 0.767123 1.11233 0.460275 0 0.345206C0 0.345206 0 0.191782 0 0.191782C0.421917 0.191782 0.920547 0.153426 1.45753 0.115069C2.1863 0.0383568 2.95342 1.90735e-06 3.52876 1.90735e-06C3.52876 1.90735e-06 3.52876 0 3.52876 0ZM20.7129 1.41919C18.795 1.41919 17.5293 3.18357 17.5293 4.83289C17.5293 6.32878 18.4882 7.93973 20.5978 7.93973C22.5156 7.93973 23.7813 6.17535 23.7813 4.52604C23.7813 3.03015 22.8224 1.41919 20.7129 1.41919C20.7129 1.41919 20.7129 1.41919 20.7129 1.41919ZM20.7899 7.32586C19.2557 7.32586 18.4502 5.86832 18.4502 4.44915C18.4502 3.02997 19.294 2.03271 20.5598 2.03271C22.094 2.03271 22.8995 3.49025 22.8995 4.90942C22.8611 6.3286 22.0173 7.32586 20.7899 7.32586C20.7899 7.32586 20.7899 7.32586 20.7899 7.32586Z" fill="#D32F2F" transform="translate(7.786 10.816)" />
      <path d="M18.7949 12.2356C16.8771 12.2356 15.6113 14 15.6113 15.6493C15.6113 17.1452 16.5702 18.7561 18.6798 18.7561C20.5976 18.7561 21.8634 16.9917 21.8634 15.3424C21.8634 13.8465 20.9045 12.2356 18.7949 12.2356C18.7949 12.2356 18.7949 12.2356 18.7949 12.2356ZM18.871 18.1423C17.3367 18.1423 16.5313 16.6847 16.5313 15.2656C16.5313 13.8464 17.3751 12.8491 18.6408 12.8491C20.1751 12.8491 20.9806 14.3067 20.9806 15.7258C20.9422 17.145 20.0984 18.1423 18.871 18.1423C18.871 18.1423 18.871 18.1423 18.871 18.1423ZM21.0571 2.56982C21.0571 2.56982 21.0571 2.68489 21.0571 2.68489C20.5585 2.72325 20.3284 2.83832 20.3284 3.49037C20.3284 3.49037 20.3284 6.55887 20.3284 6.55887C20.3284 7.86298 20.827 8.47667 21.9777 8.47667C23.1284 8.47667 23.627 7.90133 23.627 6.55887C23.627 6.55887 23.627 3.49037 23.627 3.49037C23.627 2.87667 23.3968 2.76161 22.8982 2.68489C22.8982 2.68489 22.8982 2.56982 22.8982 2.56982L25.1229 2.56982C25.1229 2.56982 25.1229 2.68489 25.1229 2.68489C24.6242 2.7616 24.5859 2.95339 24.5859 3.49037C24.5859 3.49037 24.5859 6.59722 24.5859 6.59722C24.5859 8.09311 23.6653 8.93695 22.016 8.93695C20.3284 8.93695 19.4462 8.13147 19.4462 6.59722C19.4462 6.59722 19.4462 3.49037 19.4462 3.49037C19.4462 2.99174 19.4078 2.76161 18.9092 2.68489C18.9092 2.68489 18.9092 2.56982 18.9092 2.56982L21.0571 2.56982L21.0571 2.56982ZM16.4547 2.4165C16.9533 2.4165 17.6053 2.49322 18.0656 2.72335C18.0656 2.72335 18.1423 4.21924 18.1423 4.21924C18.1423 4.21924 18.0273 4.21924 18.0273 4.21924C17.7971 3.33705 17.2601 2.95349 16.3012 2.95349C14.9588 2.95349 13.9999 3.98911 13.9999 5.36993C13.9999 6.94253 15.1122 8.28499 16.4547 8.28499C17.1067 8.28499 17.6437 8.09321 18.3341 7.63294C18.3341 7.63294 18.2958 8.16992 18.2958 8.16992C17.7588 8.6302 16.9533 8.93705 16.1478 8.93705C14.4218 8.93705 13.156 7.55623 13.156 5.71513C13.1177 3.83568 14.5369 2.4165 16.4547 2.4165C16.4547 2.4165 16.4547 2.4165 16.4547 2.4165ZM10.5479 2.4165C11.0466 2.4165 11.737 2.53157 12.1205 2.72335C12.1205 2.72335 12.1589 4.21924 12.1589 4.21924C12.1589 4.21924 12.0438 4.21924 12.0438 4.21924C11.9671 3.37541 11.3918 2.91513 10.3945 2.91513C9.43561 2.91513 8.78356 3.33705 8.78356 3.98911C8.78356 4.52609 9.0137 4.8713 10.2794 5.13979C11.3151 5.33157 12.389 5.56171 12.389 6.94253C12.389 8.16993 11.3534 8.93705 9.78082 8.93705C9.12876 8.93705 8.47671 8.78362 7.97808 8.47677C7.97808 8.47677 7.90137 6.86582 7.90137 6.86582C7.90137 6.86582 8.05479 6.86582 8.05479 6.86582C8.24657 7.97814 8.89863 8.47677 10.011 8.47677C10.7781 8.47677 11.5452 7.97814 11.5452 7.13431C11.5452 6.36719 11.0082 6.17541 10.3945 6.06034C8.70685 5.71513 7.93972 5.36993 7.93972 4.21924C7.97808 3.18363 9.09041 2.4165 10.5479 2.4165C10.5479 2.4165 10.5479 2.4165 10.5479 2.4165ZM6.71232 0L6.78903 1.99452C6.78903 1.99452 6.63561 1.99452 6.63561 1.99452C6.52054 1.07397 6.13698 0.613698 5.3315 0.613698C5.3315 0.613698 2.37808 0.613698 2.37808 0.613698L2.37808 3.79726C2.37808 3.79726 4.48766 3.79726 4.48766 3.79726C5.29314 3.79726 5.40821 3.49041 5.48492 2.76164C5.48492 2.76164 5.63835 2.76164 5.63835 2.76164L5.63835 5.44657C5.63835 5.44657 5.48492 5.44657 5.48492 5.44657C5.40821 4.75616 5.29314 4.41095 4.48766 4.41095C4.48766 4.41095 2.37808 4.41095 2.37808 4.41095L2.37808 8.1315C2.37808 8.1315 4.98629 8.1315 4.98629 8.1315C6.13698 8.1315 6.67396 7.90136 6.98081 6.52054C6.98081 6.52054 7.09588 6.52054 7.09588 6.52054L6.94246 8.74519L0 8.74519C0 8.74519 0 8.59177 0 8.59177C1.11233 8.43834 1.2274 8.1315 1.2274 6.82739C1.2274 6.82739 1.2274 1.84109 1.2274 1.84109C1.2274 0.613697 1.11233 0.306849 0 0.19178C0 0.19178 0 0 0 0L6.71232 0L6.71232 0ZM36.0546 2.4165C34.1368 2.4165 32.8711 4.18089 32.8711 5.8302C32.8711 7.32609 33.83 8.93705 35.9396 8.93705C37.8574 8.93705 39.1231 7.17266 39.1231 5.52335C39.1231 4.02746 38.1642 2.4165 36.0546 2.4165C36.0546 2.4165 36.0546 2.4165 36.0546 2.4165ZM36.1317 8.32342C34.5975 8.32342 33.792 6.82753 33.792 5.44671C33.792 4.02753 34.6358 3.03027 35.9016 3.03027C37.4358 3.03027 38.2413 4.48781 38.2413 5.90698C38.2413 7.32616 37.3591 8.32342 36.1317 8.32342C36.1317 8.32342 36.1317 8.32342 36.1317 8.32342ZM28.345 2.56982L25.8135 2.56982C25.8135 2.56982 25.8135 2.68489 25.8135 2.68489C26.3121 2.72325 26.5422 2.83832 26.5422 3.49037C26.5422 3.49037 26.5422 7.86297 26.5422 7.86297C26.5422 8.47667 26.3121 8.59174 25.8135 8.66845C25.8135 8.66845 25.8135 8.78352 25.8135 8.78352C25.8135 8.78352 28.6518 8.78352 28.6518 8.78352C30.6847 8.78352 32.2189 7.44105 32.2189 5.63832C32.1806 3.72051 30.7231 2.56982 28.345 2.56982C28.345 2.56982 28.345 2.56982 28.345 2.56982ZM28.5752 8.28504L27.4629 8.28504L27.4629 3.0686C27.4629 3.0686 27.9999 3.0686 27.9999 3.0686C30.0711 3.0686 31.1834 3.98915 31.1834 5.67682C31.1834 7.21107 30.1095 8.28504 28.5752 8.28504C28.5752 8.28504 28.5752 8.28504 28.5752 8.28504Z" fill="#D32F2F" />
    </g>
  </g>
</svg>