<?xml version="1.0" encoding="utf-8"?>
<svg width="102" height="139" viewBox="0 0 102 139" fill="none" xmlns="http://www.w3.org/2000/svg">
  <g>
    <g transform="translate(26.309 0)">
      <path d="M22.3297 26.5156C30.3812 26.5156 31.5621 30.3803 31.5621 32.6347C31.5621 35.3186 30.1665 37.2509 27.268 38.6465C27.268 38.6465 26.9459 38.7539 26.9459 38.7539C26.9459 38.7539 27.59 39.8274 27.59 39.8274C30.3812 44.7656 33.8165 50.9921 39.5062 52.2803C39.5062 52.2803 39.5062 52.495 39.5062 52.495C38.4327 52.8171 37.4665 53.0318 36.5003 53.0318C34.3533 53.0318 32.4209 52.173 30.5959 50.1333C28.8783 48.3083 26.9459 45.6244 25.2283 42.5112C24.5842 41.4377 23.4033 39.5053 22.4371 39.0759C22.4371 39.0759 22.4371 38.8612 22.4371 38.8612C24.0474 38.4318 27.8047 37.0362 27.8047 33.1715C27.8047 28.8774 23.618 26.8377 19.5386 26.8377C19.5386 26.8377 19.2165 26.8377 19.2165 26.8377C19.2165 26.8377 19.2165 46.1612 19.2165 46.1612C19.2165 50.4553 19.3239 51.2068 24.3695 51.9583C24.3695 51.9583 24.3695 52.2803 24.3695 52.2803L11.165 52.2803C11.165 52.2803 11.165 51.9583 11.165 51.9583C15.6739 51.3142 15.6739 50.1333 15.7812 46.1612C15.7812 46.1612 15.7812 33.7083 15.7812 33.7083C15.7812 28.5553 15.4592 27.4818 11.3797 27.1597C11.3797 27.1597 11.3797 26.8377 11.3797 26.8377L21.4709 26.5156L22.3297 26.5156C22.3297 26.5156 22.3297 26.5156 22.3297 26.5156ZM27.0527 14.1699C33.1719 14.2773 38.9689 15.2435 43.3704 16.8537C43.3704 16.8537 43.4777 16.8537 43.4777 16.8537C43.4777 16.8537 36.1777 16.8537 36.1777 16.8537C34.4601 16.8537 28.7704 16.639 27.0527 14.1699C27.0527 14.1699 27.0527 14.1699 27.0527 14.1699ZM2.79137 20.2898C2.57667 20.2898 2.25461 20.3971 2.14725 20.6118C1.93255 20.8266 1.8252 21.0413 1.8252 21.3633C2.57667 60.6545 20.934 70.1015 24.584 71.6045C24.584 71.6045 24.7987 71.6045 24.7987 71.6045C26.5164 70.9604 31.0252 68.7059 35.534 63.0162C40.7943 56.5751 47.1281 44.0148 47.5575 21.3633C47.5575 21.0413 47.4502 20.8265 47.2355 20.6118C47.0208 20.3971 46.8061 20.2898 46.5914 20.2898C46.5914 20.2898 36.1781 20.2898 36.1781 20.2898C31.0252 20.2898 27.0531 19.2163 25.0134 17.0692C25.0134 17.0692 24.6914 16.8545 24.6914 16.8545C24.6914 16.8545 24.4767 17.0692 24.4767 17.0692C22.3296 19.2163 18.4649 20.2898 13.312 20.2898C13.312 20.2898 2.79137 20.2898 2.79137 20.2898C2.79137 20.2898 2.79137 20.2898 2.79137 20.2898ZM24.6915 72.9995C23.0812 72.4628 1.39593 64.4113 0.537109 21.3628C0.537109 20.7187 0.751815 20.1819 1.18123 19.6451C1.61064 19.2157 2.1474 19.001 2.79152 19.001C2.79152 19.001 13.3121 19.001 13.3121 19.001C16.318 19.001 23.0812 18.5716 24.6915 14.4922C26.4092 18.5716 33.1724 19.001 36.0709 19.001C36.0709 19.001 46.4842 19.001 46.4842 19.001C47.1283 19.001 47.665 19.2157 48.0945 19.6451C48.5239 20.0745 48.7386 20.7187 48.7386 21.3628C47.9871 64.4113 26.3018 72.4628 24.6915 72.9995C24.6915 72.9995 24.6915 72.9995 24.6915 72.9995ZM24.7987 10.3053C33.7089 10.3053 40.6869 11.2715 46.3766 13.4186C46.4839 13.4186 46.5913 13.5259 46.6987 13.5259C47.7722 13.5259 47.8795 12.8818 47.8795 12.6671C47.8795 12.1303 47.6648 11.8083 47.2354 11.5936C41.2237 9.33916 33.7089 8.26563 24.7987 8.26563C15.9957 8.26563 8.37365 9.33916 2.36189 11.5936C1.93248 11.7009 1.71777 12.1303 1.71777 12.6671C1.71777 12.8818 1.82513 13.5259 2.89866 13.5259C3.00601 13.5259 3.11336 13.5259 3.22071 13.4186C8.80307 11.2715 15.8884 10.3053 24.7987 10.3053C24.7987 10.3053 24.7987 10.3053 24.7987 10.3053ZM22.5441 14.1699C20.8265 16.639 15.1368 16.8537 13.4191 16.8537C13.4191 16.8537 6.11914 16.8537 6.11914 16.8537C6.11914 16.8537 6.22649 16.8537 6.22649 16.8537C10.628 15.2435 16.425 14.2773 22.5441 14.1699C22.5441 14.1699 22.5441 14.1699 22.5441 14.1699ZM24.7987 6.54883C33.8163 6.54883 41.5457 7.72971 47.6648 9.98412C48.631 10.3062 49.2751 11.2724 49.2751 12.4532C49.2751 13.8488 48.309 14.815 46.9134 14.9224C46.9134 14.9224 45.5178 14.7077 45.5178 14.7077C40.1501 12.7753 33.3869 11.8091 24.7987 11.8091C16.2104 11.8091 9.4472 12.7753 3.9722 14.7077C3.9722 14.7077 2.57661 14.9224 2.57661 14.9224C1.18102 14.815 0.214844 13.8488 0.214844 12.4532C0.214844 11.2724 0.858961 10.3062 1.82514 9.98412C8.05161 7.72971 15.781 6.54883 24.7987 6.54883C24.7987 6.54883 24.7987 6.54883 24.7987 6.54883ZM47.7719 3.97266C48.6307 3.97266 49.3822 4.72413 49.3822 5.6903C49.3822 6.76383 48.6307 7.5153 47.7719 7.5153C46.9131 7.5153 46.1616 6.76383 46.1616 5.79766C46.0542 4.83148 46.8057 3.97266 47.7719 3.97266C47.7719 3.97266 47.7719 3.97266 47.7719 3.97266ZM1.61029 3.97266C2.57647 3.97266 3.22059 4.72413 3.22059 5.6903C3.32794 6.76383 2.57647 7.5153 1.61029 7.5153C0.751471 7.5153 0 6.76383 0 5.79766C0 4.83148 0.751471 3.97266 1.61029 3.97266C1.61029 3.97266 1.61029 3.97266 1.61029 3.97266ZM36.2851 0.966797C37.1439 0.966797 37.8954 1.71827 37.8954 2.68444C37.8954 3.65062 37.1439 4.40209 36.2851 4.40209C35.4263 4.40209 34.6748 3.65062 34.6748 2.68444C34.6748 1.71827 35.4263 0.966797 36.2851 0.966797C36.2851 0.966797 36.2851 0.966797 36.2851 0.966797ZM12.9892 0.966797C13.848 0.966797 14.5995 1.71827 14.5995 2.68444C14.5995 3.65062 13.848 4.40209 12.9892 4.40209C12.1304 4.40209 11.3789 3.65062 11.3789 2.68444C11.3789 1.71827 12.1304 0.966797 12.9892 0.966797C12.9892 0.966797 12.9892 0.966797 12.9892 0.966797ZM24.5839 0C25.4427 0 26.1942 0.751471 26.1942 1.71765C26.1942 2.68382 25.4427 3.43529 24.5839 3.43529C23.7251 3.43529 22.9736 2.68382 22.9736 1.71765C22.9736 0.751471 23.7251 0 24.5839 0C24.5839 0 24.5839 0 24.5839 0Z" fill="#FFE6B5" />
    </g>
    <g transform="translate(0 85)">
      <path d="M44.2998 4.10059C44.2998 4.10059 44.2998 4.40059 44.2998 4.40059C42.9998 4.50058 42.3998 4.80059 42.3998 6.50058C42.3998 6.50058 42.3998 19.1006 42.3998 19.1006C42.3998 22.6006 40.6998 24.9006 37.3998 25.8006C37.3998 25.8006 36.7998 25.2006 36.7998 25.2006C39.5998 24.3006 39.8998 22.1006 39.8998 20.5006C39.8998 20.5006 39.8998 6.50058 39.8998 6.50058C39.8998 4.90059 39.2998 4.60058 37.9998 4.40059C37.9998 4.40059 37.9998 4.10059 37.9998 4.10059L44.2998 4.10059L44.2998 4.10059ZM9.2 0C14.5 0 17.6 2.1 17.6 5.7C17.6 8.7 15.3 10.4 13.3 11.3C13.3 11.3 13.1 11.4 13.1 11.4C13.1 11.4 13.2 11.6 13.2 11.6C16.1 16.7 19.9 22.6 24.6 23.3C24.6 23.3 24.6 23.6 24.6 23.6C23.7 23.9 22.8 24 22 24C17.9 24 15.6 20.5 13.3 17C13.3 17 12.7 16.1 12.7 16.1C12.4 15.7 12.2 15.3 11.9 14.8C11.1 13.4 10.2 12 9.2 11.7C9.2 11.7 9.3 11.3 9.3 11.3C12.7 10.4 14.6 8.6 14.6 6.2C14.6 3.1 12.1 1.2 8 1.2C7.4 1.2 6.9 1.2 6.4 1.3C6.4 1.3 6.2 1.3 6.2 1.3C6.2 1.3 6.2 18.4 6.2 18.4C6.2 21.6 6.5 22.4 9.4 22.7C9.4 22.7 9.4 23.1 9.4 23.1L0 23.1C0 23.1 0 22.8 0 22.8C2.9 22.4 3.2 21.6 3.2 18.2C3.2 18.2 3.2 5.2 3.2 5.2C3.2 2 2.9 1.2 0 0.900003C0 0.900003 0 0.500004 0 0.500004C1.1 0.500004 2.4 0.400003 3.8 0.300003C5.7 0.100002 7.7 3.8147e-06 9.2 3.8147e-06C9.2 3.8147e-06 9.2 0 9.2 0ZM54.0002 3.7002C49.0002 3.7002 45.7002 8.30019 45.7002 12.6002C45.7002 16.5002 48.2002 20.7002 53.7002 20.7002C58.7002 20.7002 62.0002 16.1002 62.0002 11.8002C62.0002 7.9002 59.5002 3.7002 54.0002 3.7002C54.0002 3.7002 54.0002 3.7002 54.0002 3.7002ZM54.1996 19.0998C50.1996 19.0998 48.0996 15.2998 48.0996 11.5998C48.0996 7.8998 50.2996 5.2998 53.5996 5.2998C57.5996 5.2998 59.6996 9.0998 59.6996 12.7998C59.5996 16.4998 57.3996 19.0998 54.1996 19.0998C54.1996 19.0998 54.1996 19.0998 54.1996 19.0998Z" fill="#FFE6B5" transform="translate(20.3 28.2)" />
      <path d="M49.0002 31.9004C44.0002 31.9004 40.7002 36.5004 40.7002 40.8004C40.7002 44.7004 43.2002 48.9004 48.7002 48.9004C53.7002 48.9004 57.0002 44.3004 57.0002 40.0004C57.0002 36.1004 54.5002 31.9004 49.0002 31.9004C49.0002 31.9004 49.0002 31.9004 49.0002 31.9004ZM49.1996 47.3C45.1996 47.3 43.0996 43.5 43.0996 39.8C43.0996 36.1 45.2996 33.5 48.5996 33.5C52.5996 33.5 54.6996 37.3 54.6996 41C54.5996 44.7 52.3996 47.3 49.1996 47.3C49.1996 47.3 49.1996 47.3 49.1996 47.3ZM54.8998 6.7002C54.8998 6.7002 54.8998 7.0002 54.8998 7.0002C53.5998 7.10019 52.9998 7.4002 52.9998 9.1002C52.9998 9.1002 52.9998 17.1002 52.9998 17.1002C52.9998 20.5002 54.2998 22.1002 57.2998 22.1002C60.2998 22.1002 61.5998 20.6002 61.5998 17.1002C61.5998 17.1002 61.5998 9.1002 61.5998 9.1002C61.5998 7.5002 60.9998 7.2002 59.6998 7.0002C59.6998 7.0002 59.6998 6.7002 59.6998 6.7002L65.4998 6.7002C65.4998 6.7002 65.4998 7.0002 65.4998 7.0002C64.1998 7.20019 64.0998 7.70019 64.0998 9.1002C64.0998 9.1002 64.0998 17.2002 64.0998 17.2002C64.0998 21.1002 61.6998 23.3002 57.3998 23.3002C52.9998 23.3002 50.6998 21.2002 50.6998 17.2002C50.6998 17.2002 50.6998 9.1002 50.6998 9.1002C50.6998 7.8002 50.5998 7.2002 49.2998 7.0002C49.2998 7.0002 49.2998 6.7002 49.2998 6.7002L54.8998 6.7002L54.8998 6.7002ZM42.8998 6.29981C44.1998 6.29981 45.8998 6.49981 47.0998 7.09981C47.0998 7.09981 47.2998 10.9998 47.2998 10.9998C47.2998 10.9998 46.9998 10.9998 46.9998 10.9998C46.3998 8.69981 44.9998 7.69981 42.4998 7.69981C38.9998 7.69981 36.4998 10.3998 36.4998 13.9998C36.4998 18.0998 39.3998 21.5998 42.8998 21.5998C44.5998 21.5998 45.9998 21.0998 47.7998 19.8998C47.7998 19.8998 47.6998 21.2998 47.6998 21.2998C46.2998 22.4998 44.1998 23.2998 42.0998 23.2998C37.5998 23.2998 34.2998 19.6998 34.2998 14.8998C34.1998 9.99981 37.8998 6.2998 42.8998 6.2998C42.8998 6.2998 42.8998 6.29981 42.8998 6.29981ZM27.4996 6.29981C28.7996 6.29981 30.5996 6.59981 31.5996 7.09981C31.5996 7.09981 31.6996 10.9998 31.6996 10.9998C31.6996 10.9998 31.3996 10.9998 31.3996 10.9998C31.1996 8.79981 29.6996 7.59981 27.0996 7.59981C24.5996 7.59981 22.8996 8.69981 22.8996 10.3998C22.8996 11.7998 23.4996 12.6998 26.7996 13.3998C29.4996 13.8998 32.2996 14.4998 32.2996 18.0998C32.2996 21.2998 29.5996 23.2998 25.4996 23.2998C23.7996 23.2998 22.0996 22.8998 20.7996 22.0998C20.7996 22.0998 20.5996 17.8998 20.5996 17.8998C20.5996 17.8998 20.9996 17.8998 20.9996 17.8998C21.4996 20.7998 23.1996 22.0998 26.0996 22.0998C28.0996 22.0998 30.0996 20.7998 30.0996 18.5998C30.0996 16.5998 28.6996 16.0998 27.0996 15.7998C22.6996 14.8998 20.6996 13.9998 20.6996 10.9998C20.7996 8.2998 23.6996 6.2998 27.4996 6.2998C27.4996 6.2998 27.4996 6.29981 27.4996 6.29981ZM17.5 0L17.7 5.2C17.7 5.2 17.3 5.2 17.3 5.2C17 2.8 16 1.6 13.9 1.6C13.9 1.6 6.2 1.6 6.2 1.6L6.2 9.9C6.2 9.9 11.7 9.9 11.7 9.9C13.8 9.9 14.1 9.1 14.3 7.2C14.3 7.2 14.7 7.2 14.7 7.2L14.7 14.2C14.7 14.2 14.3 14.2 14.3 14.2C14.1 12.4 13.8 11.5 11.7 11.5C11.7 11.5 6.2 11.5 6.2 11.5L6.2 21.2C6.2 21.2 13 21.2 13 21.2C16 21.2 17.4 20.6 18.2 17C18.2 17 18.5 17 18.5 17L18.1 22.8L0 22.8C0 22.8 0 22.4 0 22.4C2.9 22 3.2 21.2 3.2 17.8C3.2 17.8 3.2 4.8 3.2 4.8C3.2 1.6 2.9 0.799999 0 0.499999C0 0.499999 0 0 0 0L17.5 0L17.5 0ZM94.0002 6.29981C89.0002 6.29981 85.7002 10.8998 85.7002 15.1998C85.7002 19.0998 88.2002 23.2998 93.7002 23.2998C98.7002 23.2998 102 18.6998 102 14.3998C102 10.4998 99.5002 6.2998 94.0002 6.2998C94.0002 6.2998 94.0002 6.29981 94.0002 6.29981ZM94.1996 21.7004C90.1996 21.7004 88.0996 17.8004 88.0996 14.2004C88.0996 10.5004 90.2996 7.90039 93.5996 7.90039C97.5996 7.90039 99.6996 11.7004 99.6996 15.4004C99.6996 19.1004 97.3996 21.7004 94.1996 21.7004C94.1996 21.7004 94.1996 21.7004 94.1996 21.7004ZM73.8998 6.7002L67.2998 6.7002C67.2998 6.7002 67.2998 7.0002 67.2998 7.0002C68.5998 7.1002 69.1998 7.4002 69.1998 9.1002C69.1998 9.1002 69.1998 20.5002 69.1998 20.5002C69.1998 22.1002 68.5998 22.4002 67.2998 22.6002C67.2998 22.6002 67.2998 22.9002 67.2998 22.9002C67.2998 22.9002 74.6998 22.9002 74.6998 22.9002C79.9998 22.9002 83.9998 19.4002 83.9998 14.7002C83.8998 9.7002 80.0998 6.7002 73.8998 6.7002C73.8998 6.7002 73.8998 6.7002 73.8998 6.7002ZM74.4996 21.6L71.5996 21.6L71.5996 8C71.5996 8 72.9996 8 72.9996 8C78.3996 8 81.2996 10.4 81.2996 14.8C81.2996 18.8 78.4996 21.6 74.4996 21.6C74.4996 21.6 74.4996 21.6 74.4996 21.6Z" fill="#FFE6B5" />
    </g>
  </g>
</svg>